<?xml version="1.0" encoding="UTF-8"?>
<svg class="Svg-sc-6c3c1v-0" fill="#FFFFFF" height="24" aria-hidden="false" aria-label="Spotify" data-encore-id="logoSpotify" role="img" viewBox="0 0 78 24" xmlns="http://www.w3.org/2000/svg">
<title>Spotify</title>
<path d="m31.823 11.078c-2.0192-0.4946-2.379-0.8406-2.379-1.5699 0-0.68812 0.6326-1.1516 1.5715-1.1516 0.9103 0 1.8137 0.35208 2.7606 1.0763 0.0286 0.02207 0.0642 0.0301 0.0998 0.02508 0.0174-0.00275 0.0341-0.00906 0.049-0.01854 0.015-0.00949 0.0279-0.02195 0.038-0.03663l0.9863-1.4264c0.0195-0.02829 0.0278-0.06298 0.0232-0.09718-0.0046-0.03419-0.0217-0.06539-0.0479-0.08738-1.1267-0.92787-2.3958-1.3782-3.8793-1.3782-2.1803 0-3.7034 1.3421-3.7034 3.2631 0 2.0604 1.3145 2.7886 3.5848 3.3524 1.9322 0.4564 2.2584 0.8396 2.2584 1.5237 0 0.7573-0.6592 1.2288-1.7207 1.2288-1.1792 0-2.1408-0.4073-3.2162-1.3632-0.0131-0.0119-0.0285-0.021-0.0452-0.0267s-0.0343-0.0079-0.0518-0.0065c-0.0176 0.0014-0.0347 0.0064-0.0503 0.0147s-0.0293 0.0197-0.0405 0.0335l-1.106 1.3502c-0.0225 0.0269-0.0337 0.0617-0.0313 0.0969s0.0182 0.0681 0.0442 0.0916c1.2523 1.1466 2.7911 1.7514 4.4516 1.7514 2.3503 0 3.8685-1.317 3.8685-3.3553 0-1.7233-1.0032-2.6762-3.4643-3.2901zm10.487 2.3091c0 1.4545-0.8737 2.4706-2.125 2.4706-1.2354 0-2.1685-1.0613-2.1685-2.4706 0-1.4084 0.9321-2.4696 2.1695-2.4696 1.2305 0 2.124 1.0382 2.124 2.4696zm-1.7059-4.3534c-1.018 0-1.8542 0.41228-2.5431 1.2558v-0.9489c3e-4 -0.03574-0.0134-0.07014-0.038-0.0957-0.0246-0.02555-0.0582-0.04019-0.0934-0.04072h-1.8087c-0.0176 1.3e-4 -0.0349 0.00376-0.051 0.01069-0.0162 0.00693-0.0308 0.01701-0.0431 0.02968s-0.022 0.02767-0.0286 0.04415-0.0099 0.03412-0.0098 0.0519v10.546c0 0.0753 0.0593 0.1364 0.1325 0.1364h1.8087c0.0352-5e-4 0.0688-0.0151 0.0934-0.0407 0.0246-0.0255 0.0383-0.0599 0.038-0.0957v-3.3292c0.6899 0.7934 1.5251 1.1806 2.5431 1.1806 1.8927 0 3.8082-1.4946 3.8082-4.3514 0-2.8578-1.9155-4.3534-3.8082-4.3534zm8.7194 6.839c-1.2968 0-2.2733-1.0683-2.2733-2.4856 0-1.4224 0.9429-2.4556 2.2436-2.4556 1.3047 0 2.2881 1.0693 2.2881 2.4877 0 1.4214-0.9488 2.4535-2.2584 2.4535zm0-6.838c-2.4373 0-4.3469 1.9259-4.3469 4.3835 0 2.4315 1.8967 4.3373 4.3172 4.3373 2.4452 0 4.3607-1.9189 4.3607-4.3684 0-2.4405-1.9016-4.3534-4.331-4.3534v0.00101zm9.5357 0.16952h-1.9895v-2.0864c2e-4 -0.01782-3e-3 -0.03552-0.0096-0.05206-0.0065-0.01654-0.0162-0.03159-0.0285-0.04429-0.0124-0.01269-0.027-0.02277-0.0432-0.02965s-0.0336-0.01043-0.0512-0.01042h-1.8087c-0.035 5.2e-4 -0.0685 0.01502-0.0931 0.04036s-0.0384 0.05948-0.0384 0.09505v2.0874h-0.8697c-0.0175 1.3e-4 -0.0348 0.00377-0.0509 0.01071-0.016 0.00694-0.0306 0.01704-0.0428 0.02972-0.0123 0.01268-0.0219 0.02769-0.0284 0.04417-0.0064 0.01647-0.0096 0.03408-0.0094 0.05182v1.5949c0 0.0742 0.0593 0.1354 0.1315 0.1354h0.8697v4.1258c0 1.6671 0.8085 2.5127 2.4038 2.5127 0.6483 0 1.186-0.1374 1.694-0.4333 0.0204-0.0119 0.0374-0.0289 0.0492-0.0495 0.0118-0.0207 0.018-0.0441 0.018-0.0679v-1.5187c0-0.0231-0.0059-0.0458-0.0169-0.0659-0.0111-0.0202-0.027-0.0372-0.0463-0.0494-0.0191-0.0121-0.041-0.019-0.0635-0.0201-0.0225-1e-3 -0.0449 0.0038-0.065 0.014-0.3489 0.1806-0.685 0.2629-1.0615 0.2629-0.5802 0-0.8401-0.2709-0.8401-0.8757v-3.8359h1.9905c0.0176-1e-4 0.0349-0.0037 0.051-0.0107 0.0162-0.0069 0.0308-0.017 0.0431-0.0296 0.0123-0.0127 0.022-0.0277 0.0286-0.0442s0.0099-0.0341 0.0098-0.0519v-1.5949c1e-4 -0.01773-0.0032-0.03532-0.0098-0.05174-0.0066-0.01643-0.0164-0.03136-0.0287-0.04395s-0.0269-0.02258-0.0431-0.0294c-0.0161-0.00681-0.0334-0.01032-0.0509-0.01032v1e-3zm6.9334 0.00803v-0.25579c0-0.75433 0.2817-1.0914 0.9143-1.0914 0.3765 0 0.68 0.07724 1.019 0.1936 0.0199 0.00647 0.041 0.00803 0.0617 0.00454 0.0206-0.00349 0.0401-0.01193 0.0569-0.0246 0.0172-0.0126 0.0312-0.02919 0.0408-0.04838s0.0146-0.04043 0.0145-0.06196v-1.5628c3e-4 -0.02909-0.0088-0.05748-0.0257-0.08097-0.0169-0.02348-0.0408-0.04082-0.0682-0.04943-0.4865-0.15201-0.9933-0.22646-1.5023-0.22068-1.6703 0-2.5539 0.96497-2.5539 2.7886v0.39321h-0.8688c-0.0352 2.7e-4 -0.0689 0.01465-0.0937 0.04002s-0.0387 0.05966-0.0387 0.0954v1.6029c0 0.0752 0.0593 0.1364 0.1324 0.1364h0.8698v6.3637c0 0.0752 0.0583 0.1354 0.1314 0.1354h1.8087c0.0722 0 0.1315-0.0602 0.1315-0.1354v-6.3647h1.6891l2.5866 6.3616c-0.2936 0.6691-0.5832 0.8025-0.9766 0.8025-0.3192 0-0.6543-0.0983-0.9982-0.2909-0.0159-0.0087-0.0334-0.0141-0.0514-0.0158-0.018-0.0018-0.0361 2e-4 -0.0534 0.0058-0.0172 0.0062-0.033 0.0158-0.0465 0.0284-0.0134 0.0126-0.0241 0.0279-0.0316 0.0448l-0.6127 1.3793c-0.0143 0.031-0.0164 0.0664-0.0059 0.099 0.0104 0.0326 0.0327 0.0599 0.0622 0.0765 0.5876 0.342 1.255 0.5174 1.9323 0.5076 1.3342 0 2.0726-0.638 2.7239-2.3553l3.1371-8.3166c0.0079-0.02064 0.0107-0.04291 0.0083-0.06491-0.0024-0.02201-0.01-0.0431-0.0222-0.06148-0.0119-0.01814-0.0281-0.03302-0.0471-0.04334-0.0189-0.01031-0.0401-0.01575-0.0616-0.01584h-1.8828c-0.0277 1.3e-4 -0.0546 0.00899-0.0771 0.02534s-0.0394 0.0394-0.0485 0.06594l-1.9283 5.6514-2.1121-5.6554c-0.0093-0.02563-0.0261-0.04775-0.0482-0.06336-0.0221-0.0156-0.0484-0.02395-0.0753-0.02391h-3.0897v0.00101zm-4.0197-0.00803h-1.8087c-0.0352 5.3e-4 -0.0688 0.01517-0.0934 0.04072-0.0246 0.02556-0.0383 0.05996-0.038 0.0957v8.094c0 0.0752 0.0593 0.1354 0.1324 0.1354h1.8087c0.0722 0 0.1315-0.0602 0.1315-0.1354v-8.095c0-0.03574-0.0139-0.07004-0.0388-0.0954-0.0248-0.02537-0.0584-0.03976-0.0937-0.04002zm-0.8954-3.6854c-0.3457 0.00212-0.6764 0.14338-0.9195 0.39277-0.2432 0.24938-0.3788 0.5865-0.3773 0.93733-9e-4 0.17388 0.032 0.34624 0.0967 0.50724s0.1601 0.30748 0.2806 0.43109c0.1205 0.1236 0.2638 0.22191 0.4217 0.2893 0.158 0.06739 0.3274 0.10255 0.4988 0.10347 0.3458-0.00212 0.6767-0.14352 0.9198-0.39312 0.2432-0.24961 0.3787-0.58698 0.3769-0.93798 0-0.73527-0.5821-1.3301-1.2977-1.3301zm15.918 4.4909h-0.3311v0.4333h0.3311c0.1651 0 0.2639-0.0833 0.2639-0.2167 0-0.1414-0.0988-0.2166-0.2639-0.2166zm0.2145 0.6179 0.3608 0.5176h-0.3045l-0.3232-0.4745h-0.2787v0.4745h-0.254v-1.3713h0.595c0.3104 0 0.5149 0.1635 0.5149 0.43736 0.0044 0.0952-0.0243 0.189-0.081 0.265-0.0567 0.0761-0.1378 0.1296-0.2293 0.1513zm-0.2817-1.3091c-0.6523 0-1.1455 0.53164-1.1455 1.1827 0 0.65 0.4902 1.1746 1.1386 1.1746 0.6523 0 1.1465-0.5316 1.1465-1.1826 0-0.65005-0.4912-1.1747-1.1396-1.1747zm-0.0069 2.4877c-0.1681-4e-4 -0.3345-0.0345-0.4895-0.1004-0.1551-0.0659-0.2958-0.1623-0.414-0.2836-0.1182-0.1212-0.2117-0.2651-0.2749-0.4231-0.0632-0.1581-0.0951-0.3273-0.0936-0.4979 0-0.71623 0.5633-1.3131 1.2789-1.3131 0.1681 3.9e-4 0.3345 0.03452 0.4895 0.10041 0.1551 0.0659 0.2958 0.16226 0.414 0.28355s0.2117 0.26511 0.2749 0.42318c0.0633 0.15803 0.0951 0.32733 0.0936 0.49793 0 0.7162-0.5633 1.314-1.2789 1.314v-1e-3zm-57.622-1.1682c-3.8683-2.297-10.248-2.5082-13.941-1.3876-0.59291 0.18009-1.2199-0.15475-1.3996-0.74776-0.17971-0.59318 0.15463-1.2198 0.74805-1.4001 4.2388-1.287 11.285-1.0384 15.738 1.605 0.5336 0.31663 0.7084 1.0056 0.3923 1.538-0.3164 0.5335-1.006 0.7091-1.5378 0.3924zm-1.4138 3.7106c-3.2245-1.9824-8.1421-2.5565-11.957-1.3986-0.49467 0.1494-1.0172-0.1294-1.1675-0.6232-0.14892-0.4948 0.12989-1.0161 0.62404-1.1665 4.3583-1.323 9.7764-0.6821 13.48 1.5939 0.44 0.271 0.5786 0.847 0.3079 1.2863-0.2714 0.4403-0.847 0.5784-1.287 0.3081zm-1.2097 3.2083c-2.818-1.7222-6.3646-2.1111-10.542-1.1569-0.40248 0.0921-0.8034-0.1601-0.89524-0.5625-0.09236-0.4025 0.15895-0.8038 0.56229-0.8956 4.5714-1.0449 8.4922-0.5952 11.655 1.3375 0.3525 0.2153 0.4637 0.6761 0.248 1.0288-0.2155 0.3535-0.6759 0.4643-1.0284 0.2487zm-16.475-5.5573c0 6.6279 5.3728 12 12 12 6.6277 0 12-5.3723 12-12 0-6.6272-5.3723-12-12-12-6.6272 0-12 5.3726-12 12z"/>
</svg>