<svg width="30" height="30" viewBox="0 0 30 30" fill="none" xmlns="http://www.w3.org/2000/svg">
    <g clip-path="url(#clip0_435_45)">
        <path
            d="M15 0C6.75048 0 0 6.75 0 15C0 23.2495 6.75048 30 15 30C23.25 30 30 23.2495 30 15C30 6.75 23.3255 0 15 0ZM21.8995 21.6745C21.601 22.125 21.0755 22.275 20.625 21.9745C17.1 19.7995 12.6745 19.35 7.42597 20.5505C6.89952 20.6995 6.45048 20.3245 6.30048 19.875C6.15 19.35 6.52548 18.8995 6.97548 18.75C12.675 17.475 17.6255 18 21.5255 20.4C22.0495 20.625 22.1255 21.225 21.8995 21.6745ZM23.7 17.55C23.3255 18.075 22.6495 18.2995 22.125 17.9245C18.075 15.45 11.925 14.6995 7.19952 16.2C6.60048 16.35 5.92452 16.0495 5.77452 15.45C5.62452 14.85 5.925 14.1745 6.525 14.0245C12 12.375 18.75 13.199 23.4 16.0495C23.85 16.2745 24.075 17.025 23.7 17.55ZM25.7995 12.9745C25.4255 13.499 24.5245 13.725 23.85 13.3485C19.05 10.4995 11.0255 10.1995 6.45048 11.624C5.69952 11.85 4.95 11.3995 4.72597 10.7245C4.5 9.975 4.95048 9.22452 5.625 9C10.95 7.42548 19.726 7.72403 25.275 11.0255C25.95 11.4 26.176 12.2995 25.7995 12.9745Z"
            fill="#37D660" />
        <path
            d="M15 0C6.75048 0 0 6.75 0 15C0 23.2495 6.75048 30 15 30C23.25 30 30 23.2495 30 15C30 6.75 23.3255 0 15 0ZM21.8995 21.6745C21.601 22.125 21.0755 22.275 20.625 21.9745C17.1 19.7995 12.6745 19.35 7.42597 20.5505C6.89952 20.6995 6.45048 20.3245 6.30048 19.875C6.15 19.35 6.52548 18.8995 6.97548 18.75C12.675 17.475 17.6255 18 21.5255 20.4C22.0495 20.625 22.1255 21.225 21.8995 21.6745ZM23.7 17.55C23.3255 18.075 22.6495 18.2995 22.125 17.9245C18.075 15.45 11.925 14.6995 7.19952 16.2C6.60048 16.35 5.92452 16.0495 5.77452 15.45C5.62452 14.85 5.925 14.1745 6.525 14.0245C12 12.375 18.75 13.199 23.4 16.0495C23.85 16.2745 24.075 17.025 23.7 17.55ZM25.7995 12.9745C25.4255 13.499 24.5245 13.725 23.85 13.3485C19.05 10.4995 11.0255 10.1995 6.45048 11.624C5.69952 11.85 4.95 11.3995 4.72597 10.7245C4.5 9.975 4.95048 9.22452 5.625 9C10.95 7.42548 19.726 7.72403 25.275 11.0255C25.95 11.4 26.176 12.2995 25.7995 12.9745Z"
            fill="#37D660" />
        <path
            d="M13.2871 11.8123C7.54407 11.8123 2.57182 13.964 0.151978 17.1014C1.18166 24.3648 7.46279 30 15 30C20.4446 30 25.2344 27.059 27.8628 22.6892C27.947 22.2745 27.9939 21.8521 27.9939 21.4219C27.9939 16.1144 21.4099 11.8123 13.2871 11.8123ZM21.8996 21.6745C21.601 22.125 21.0755 22.275 20.625 21.9745C17.1 19.7995 12.6746 19.35 7.42601 20.5505C6.89956 20.6995 6.45053 20.3245 6.30053 19.875C6.15004 19.35 6.52553 18.8995 6.97553 18.75C12.675 17.475 17.6255 18 21.5255 20.4C22.0496 20.625 22.1255 21.225 21.8996 21.6745ZM23.7 17.55C23.3255 18.075 22.6496 18.2995 22.125 17.9245C18.075 15.45 11.925 14.6995 7.19956 16.2C6.60053 16.35 5.92456 16.0495 5.77456 15.45C5.62456 14.85 5.92504 14.1745 6.52504 14.0245C12 12.375 18.75 13.199 23.4 16.0495C23.85 16.2745 24.075 17.025 23.7 17.55Z"
            fill="#2CC64D" />
        <path
            d="M15 2.22677C22.9466 2.22677 29.3835 8.37677 29.9545 16.11C29.9816 15.7432 30 15.3731 30 15C30 6.75 23.3255 0 15 0C6.75048 0 0 6.75 0 15C0 15.374 0.0183871 15.7456 0.0459677 16.1134C0.62129 8.37774 7.12548 2.22677 15 2.22677Z"
            fill="#5AF27A" />
        <path
            d="M19.7293 29.2268C20.6056 27.209 21.7064 24.1916 21.899 23.9008C22.1249 23.4513 22.0495 22.8513 21.525 22.6263C17.6245 20.2263 12.6745 19.7013 6.97495 20.9763C6.52495 21.1263 6.14995 21.5763 6.29995 22.1013C6.37543 22.3287 6.69382 25.0703 7.05769 27.704C9.36479 29.1561 12.0875 30 15 30C16.6514 30 18.2399 29.7256 19.7293 29.2268Z"
            fill="#1DAA59" />
    </g>
    <defs>
        <clipPath id="clip0_435_45">
            <rect width="30" height="30" fill="white" />
        </clipPath>
    </defs>
</svg>