<?xml version="1.0" encoding="UTF-8"?>
<svg class="Svg-sc-ytk21e-0 bneLcE search-icon" fill='white' aria-hidden="true" data-encore-id="icon" role="img" viewBox="0 0 24 24" xmlns="http://www.w3.org/2000/svg">
<svg width="24" height="24" viewBox="0 0 24 24" xmlns="http://www.w3.org/2000/svg">
<path d="m10.533 1.2789c-5.1808 0-9.407 4.1399-9.407 9.279 0 5.1391 4.2262 9.279 9.407 9.279 2.234 0 4.2905-0.7698 5.9072-2.0575l4.3527 4.3526c0.3905 0.3906 1.0237 0.3906 1.4142 0 0.3905-0.3905 0.3905-1.0237 0-1.4142l-4.3437-4.3437c1.2982-1.5892 2.0766-3.6107 2.0766-5.8162 0-5.139-4.2262-9.279-9.407-9.279zm-7.407 9.279c0-4.0056 3.3017-7.279 7.407-7.279 4.1053 0 7.407 3.2733 7.407 7.279 0 4.0057-3.3017 7.279-7.407 7.279-4.1053 0-7.407-3.2733-7.407-7.279z"/>
</svg>
</svg>
