<?xml version="1.0" encoding="UTF-8"?>
<!-- Generator: visioncortex VTracer 0.6.3 -->
<svg version="1.1" xmlns="http://www.w3.org/2000/svg" width="1280" height="383">
<path d="M0 0 C49.68 -1.13 98.04 18.57 133.76 52.7 C134.25 53.17 134.74 53.64 135.25 54.12 C135.75 54.6 136.26 55.08 136.78 55.57 C144.44 62.84 151.15 70.49 157.25 79.12 C157.68 79.73 158.11 80.33 158.56 80.95 C176.12 105.83 186.76 134.11 191.25 164.12 C191.35 164.8 191.46 165.48 191.56 166.17 C194.16 185.86 193.37 207.75 189.25 227.12 C189.06 228.02 188.87 228.92 188.68 229.85 C182.83 256.75 171.38 282.47 154.25 304.12 C153.54 305.02 152.84 305.92 152.11 306.84 C144.51 316.3 136.65 325.43 127.25 333.12 C126.21 334.02 125.16 334.91 124.12 335.8 C97.95 357.8 65.93 371.82 32.25 377.12 C31.51 377.24 30.76 377.36 30 377.48 C-18.73 384.78 -69.75 371.83 -109.49 342.85 C-112.7 340.41 -115.74 337.8 -118.75 335.12 C-119.56 334.42 -120.37 333.72 -121.21 332.99 C-123.77 330.74 -126.26 328.45 -128.75 326.12 C-129.69 325.25 -130.62 324.38 -131.59 323.49 C-143.64 312.01 -153.55 298.58 -161.75 284.12 C-162.1 283.53 -162.45 282.93 -162.81 282.32 C-187.9 239.38 -192.41 187.64 -180.5 139.95 C-171.76 107.22 -153.97 79.44 -130.75 55.12 C-130.15 54.47 -129.55 53.82 -128.93 53.14 C-109.39 32.48 -81.51 17.69 -54.75 9.12 C-54.01 8.89 -53.26 8.65 -52.5 8.4 C-35.38 3 -17.89 0.81 0 0 Z M-105.94 110.06 C-106.92 110.29 -107.91 110.52 -108.92 110.75 C-115.88 112.52 -121.29 114.79 -125.69 120.75 C-127.58 126.76 -128.08 133.32 -125.12 139.06 C-121.66 143.53 -118.45 146.09 -112.81 146.9 C-106.74 147.48 -101.28 145.89 -95.44 144.38 C-87.28 142.37 -79.19 140.52 -70.88 139.31 C-70.12 139.2 -69.37 139.09 -68.6 138.98 C-58.55 137.58 -48.51 136.97 -38.37 136.92 C-37.33 136.91 -36.29 136.91 -35.21 136.9 C-31.87 136.88 -28.53 136.88 -25.19 136.88 C-23.47 136.87 -23.47 136.87 -21.72 136.87 C-4.87 136.89 11.6 137.3 28.25 140.12 C29.31 140.3 30.36 140.47 31.45 140.65 C59 145.21 85.99 152.42 110.44 166.19 C116.67 169.66 121.99 171.94 129.25 170.12 C133.82 167.93 137.83 164.66 140.25 160.12 C141.56 155.25 141.55 151.25 140.25 146.38 C136.07 139.58 129.53 135.82 122.56 132.25 C121.73 131.82 120.9 131.39 120.05 130.95 C53.01 97.04 -33.65 92.78 -105.94 110.06 Z M-97.81 174.62 C-98.89 174.91 -98.89 174.91 -99.99 175.2 C-105.93 176.89 -110.47 178.98 -113.69 184.38 C-115.34 190.2 -114.78 194.03 -112.12 199.44 C-109.15 202.8 -107.07 203.92 -102.75 205.12 C-96.25 205.02 -89.96 203.3 -83.69 201.75 C-29.24 189.1 35.12 194.2 84.14 222.34 C94.05 228.2 94.05 228.2 105.25 228.12 C109.66 225.96 112.45 223.73 114.25 219.12 C114.92 214.15 115.01 210.53 112.59 206.04 C108.34 200.75 102.19 198.18 96.25 195.12 C95.5 194.73 94.75 194.34 93.98 193.94 C36.39 164.06 -35.36 157.85 -97.81 174.62 Z M-72.75 231.12 C-74.49 231.41 -74.49 231.41 -76.26 231.69 C-79.84 232.29 -83.42 232.92 -87 233.56 C-88.09 233.76 -89.18 233.95 -90.3 234.15 C-96.71 235.39 -102.19 236.46 -106.13 242.1 C-107.29 245.88 -106.77 249.35 -105.75 253.12 C-103.22 256.81 -101.7 257.91 -97.34 258.89 C-91.51 259.5 -85.99 258.04 -80.31 256.81 C-29.12 246.39 27.31 248.86 72.91 276.75 C76.62 278.93 80.07 278.81 84.25 278.12 C87.37 276.33 88.8 274.88 90.62 271.81 C91.66 267.35 91.2 263.73 88.86 259.77 C85.01 255.86 80.49 253.71 75.62 251.25 C74.59 250.72 73.56 250.2 72.5 249.65 C50.97 238.82 28.16 232.2 4.25 229.12 C3.57 229.03 2.9 228.94 2.2 228.84 C-6.9 227.73 -16.1 227.88 -25.25 227.88 C-26.16 227.87 -27.08 227.87 -28.02 227.87 C-43.13 227.89 -57.81 228.65 -72.75 231.12 Z " fill="#000000" transform="translate(195.75,1.875)"/>
<path d="M0 0 C0.68 0.13 1.37 0.25 2.07 0.38 C6.86 1.36 6.86 1.36 9.12 3.62 C9.37 6.21 9.37 6.21 9.36 9.44 C9.35 10.6 9.35 11.75 9.35 12.95 C9.34 14.16 9.33 15.37 9.31 16.62 C9.31 18.45 9.31 18.45 9.31 20.3 C9.27 29.34 9.27 29.34 8.12 31.62 C0.54 30.74 0.54 30.74 -1.77 30.1 C-7.85 28.72 -16.41 28.46 -21.88 31.62 C-23.89 35.37 -24.06 39.18 -24.42 43.35 C-24.5 44.34 -24.59 45.33 -24.68 46.34 C-24.74 47.1 -24.81 47.85 -24.88 48.62 C-24.26 48.61 -23.64 48.6 -23 48.59 C-16.56 48.48 -10.12 48.41 -3.68 48.35 C-1.27 48.33 1.13 48.29 3.54 48.25 C6.99 48.19 10.44 48.16 13.89 48.14 C15.51 48.1 15.51 48.1 17.16 48.06 C19.9 48.06 22.43 48.12 25.12 48.62 C27.11 50.61 27.11 50.61 28.12 53.62 C28.68 54.96 29.23 56.28 29.79 57.61 C30.4 59.2 31.01 60.78 31.61 62.37 C31.94 63.23 32.28 64.1 32.62 64.99 C33.71 67.82 34.79 70.66 35.88 73.5 C36.63 75.46 37.38 77.43 38.14 79.39 C39.69 83.44 41.24 87.49 42.79 91.54 C45.05 97.43 47.31 103.32 49.58 109.21 C50.28 111.03 50.98 112.84 51.68 114.66 C52.01 115.52 52.35 116.39 52.69 117.29 C55.17 123.73 57.65 130.18 60.12 136.62 C66.05 120.83 71.61 104.9 77.17 88.97 C79.05 83.57 80.93 78.17 82.82 72.78 C83.47 70.91 84.11 69.05 84.76 67.19 C85.88 64 87 60.81 88.12 57.62 C88.56 56.36 88.56 56.36 89.01 55.06 C90.9 49.74 90.9 49.74 93.12 48.62 C95.52 48.53 97.89 48.49 100.29 48.49 C100.99 48.49 101.7 48.49 102.42 48.49 C103.91 48.49 105.4 48.49 106.89 48.49 C109.18 48.5 111.47 48.49 113.76 48.49 C115.21 48.49 116.65 48.49 118.1 48.49 C119.13 48.49 119.13 48.49 120.18 48.49 C125.01 48.51 125.01 48.51 126.12 49.62 C125.67 55.17 124.11 59.9 122.09 65.05 C121.78 65.86 121.47 66.67 121.15 67.51 C120.13 70.18 119.1 72.84 118.06 75.5 C117.34 77.39 116.61 79.28 115.88 81.17 C113.64 86.99 111.39 92.81 109.12 98.62 C108.79 99.5 108.45 100.37 108.1 101.27 C105.19 108.74 102.29 116.21 99.36 123.67 C96.02 132.18 92.71 140.7 89.45 149.24 C87.76 153.66 86.06 158.08 84.37 162.51 C83.55 164.64 82.74 166.77 81.93 168.9 C66.29 210.2 66.29 210.2 50.12 217.62 C35.28 223.63 18.93 221.14 4.38 215.57 C2.19 214.56 2.19 214.56 -0.88 212.62 C-2.12 208.9 -1.48 208.09 0.11 204.59 C0.55 203.62 0.99 202.64 1.45 201.64 C1.92 200.62 2.39 199.61 2.88 198.56 C3.33 197.54 3.79 196.52 4.26 195.47 C7.74 187.88 7.74 187.88 11.12 185.62 C13.44 186.3 13.44 186.3 16.12 187.5 C21.9 189.75 26.97 190.6 33.12 189.62 C37.53 187.5 40.27 185.2 42.12 180.62 C41.68 175.53 39.92 171.23 37.94 166.58 C37.45 165.4 37.45 165.4 36.95 164.2 C35.87 161.61 34.78 159.02 33.69 156.44 C32.93 154.62 32.17 152.81 31.41 151 C29.41 146.19 27.39 141.39 25.37 136.59 C22.88 130.65 20.39 124.71 17.9 118.77 C15.94 114.08 13.98 109.4 12.02 104.72 C6.11 90.65 6.11 90.65 3.61 84.53 C3.32 83.8 3.02 83.07 2.71 82.32 C2.12 80.62 2.12 80.62 2.12 78.62 C-6.79 78.62 -15.69 78.62 -24.88 78.62 C-24.88 112.28 -24.88 145.94 -24.88 180.62 C-27.84 182.11 -30.51 181.75 -33.82 181.76 C-34.5 181.76 -35.18 181.76 -35.89 181.76 C-37.33 181.76 -38.77 181.76 -40.22 181.76 C-42.43 181.75 -44.65 181.76 -46.87 181.76 C-48.27 181.76 -49.67 181.76 -51.07 181.76 C-52.35 181.76 -53.63 181.76 -54.95 181.75 C-57.88 181.62 -57.88 181.62 -58.88 180.62 C-58.97 177.46 -59 174.31 -58.99 171.15 C-58.99 170.15 -58.99 169.16 -58.99 168.13 C-58.99 164.83 -58.98 161.52 -58.97 158.21 C-58.97 155.93 -58.97 153.64 -58.97 151.36 C-58.96 145.33 -58.95 139.3 -58.94 133.27 C-58.93 127.13 -58.93 120.98 -58.92 114.83 C-58.91 102.76 -58.9 90.69 -58.88 78.62 C-64.15 78.62 -69.43 78.62 -74.88 78.62 C-74.9 74.51 -74.92 70.4 -74.93 66.29 C-74.93 64.89 -74.94 63.49 -74.95 62.09 C-74.96 60.08 -74.97 58.07 -74.97 56.07 C-74.98 54.86 -74.98 53.65 -74.99 52.4 C-74.88 49.62 -74.88 49.62 -73.88 48.62 C-71.34 48.55 -68.84 48.53 -66.31 48.56 C-65.6 48.57 -64.89 48.57 -64.16 48.58 C-62.4 48.59 -60.64 48.61 -58.88 48.62 C-58.92 47.55 -58.97 46.47 -59.02 45.36 C-59.41 32.2 -57.9 19.94 -48.88 9.62 C-35.74 -3 -16.9 -3.14 0 0 Z " fill="#000000" transform="translate(1098.875,98.375)"/>
<path d="M0 0 C0.93 0.4 1.85 0.8 2.81 1.21 C17.87 8.58 27.93 21.36 33.93 36.79 C40.58 56.77 40.05 79.01 31.38 98.29 C23.26 114.26 10.96 125.21 -6 131 C-20.42 135.27 -36.3 134.38 -49.77 127.61 C-55.17 124.53 -59.16 121.15 -64 117 C-64.33 134.16 -64.66 151.32 -65 169 C-70.42 169.02 -75.85 169.04 -81.44 169.06 C-83.15 169.07 -84.86 169.08 -86.63 169.09 C-87.98 169.09 -89.33 169.1 -90.68 169.1 C-91.74 169.11 -91.74 169.11 -92.83 169.11 C-94.55 169.11 -96.28 169.06 -98 169 C-99.87 167.13 -99.13 163.96 -99.13 161.47 C-99.13 160.78 -99.13 160.09 -99.13 159.38 C-99.14 157.05 -99.13 154.72 -99.13 152.39 C-99.13 150.73 -99.13 149.06 -99.13 147.4 C-99.14 142.87 -99.14 138.34 -99.13 133.81 C-99.13 129.07 -99.13 124.34 -99.14 119.61 C-99.14 111.67 -99.14 103.72 -99.13 95.77 C-99.12 86.57 -99.13 77.37 -99.13 68.17 C-99.14 60.29 -99.14 52.4 -99.13 44.52 C-99.13 39.8 -99.13 35.09 -99.14 30.37 C-99.14 25.94 -99.14 21.51 -99.13 17.08 C-99.13 15.45 -99.13 13.81 -99.13 12.18 C-99.14 9.96 -99.13 7.75 -99.13 5.53 C-99.13 4.29 -99.13 3.04 -99.13 1.76 C-99 -1 -99 -1 -98 -2 C-95.64 -2.1 -93.3 -2.14 -90.94 -2.13 C-90.23 -2.13 -89.52 -2.13 -88.8 -2.14 C-87.3 -2.14 -85.8 -2.13 -84.31 -2.13 C-82.01 -2.13 -79.71 -2.13 -77.41 -2.14 C-75.96 -2.14 -74.51 -2.13 -73.06 -2.13 C-72.37 -2.13 -71.68 -2.14 -70.97 -2.14 C-66.11 -2.11 -66.11 -2.11 -65 -1 C-64.76 1.35 -64.59 3.71 -64.44 6.06 C-64.35 7.35 -64.27 8.64 -64.18 9.97 C-64.12 10.97 -64.06 11.97 -64 13 C-63.42 12.42 -62.83 11.84 -62.23 11.24 C-45.55 -4.65 -21.41 -9.39 0 0 Z M-58.68 40.07 C-65.7 50.36 -66.1 61.96 -65 74 C-63.08 82.8 -59.03 90.28 -52 96 C-42.7 101.65 -34.21 104.64 -23.34 102.47 C-13.96 99.86 -7.72 94.83 -2 87 C3.93 75.55 4.85 62.42 1.38 50.06 C-0.56 44.54 -2.98 40.25 -7 36 C-7.77 35.17 -7.77 35.17 -8.55 34.32 C-14.58 28.52 -22.27 25.83 -30.56 25.56 C-42.44 26.09 -51.21 30.91 -58.68 40.07 Z " fill="#000000" transform="translate(690,149)"/>
<path d="M0 0 C-0.33 6.06 -3.19 9.48 -6.81 14.06 C-7.35 14.76 -7.88 15.45 -8.43 16.17 C-11.25 19.81 -14.11 23.41 -17 27 C-20.94 26.36 -23.69 24.41 -27 22.25 C-41.51 13.06 -57.95 7.93 -75.14 11.69 C-81.31 13.91 -85.04 17.08 -88 23 C-88.58 28.62 -88.41 33.31 -85 38 C-76.01 45.38 -64.06 47.91 -53.05 50.75 C-12.49 61.27 -12.49 61.27 -1.18 77.95 C6.06 90.55 6.82 104.52 4.35 118.73 C0.28 131.89 -7.95 142.38 -20.07 148.89 C-41.97 160.06 -67.93 159.46 -91.06 152.37 C-104.67 147.83 -119.8 140.23 -130 130 C-130.33 129.01 -130.66 128.02 -131 127 C-129.48 124.72 -129.48 124.72 -127.19 122.06 C-126.37 121.1 -125.55 120.13 -124.7 119.14 C-124.26 118.63 -123.83 118.12 -123.37 117.6 C-121.49 115.4 -119.64 113.17 -117.79 110.94 C-115.87 108.62 -113.93 106.31 -112 104 C-107.44 104.51 -105.08 106.25 -101.56 109.12 C-87.3 120.31 -70.2 126.32 -52 125 C-45.06 123.9 -37.86 122.45 -33 117 C-30.04 112.28 -29.47 107.55 -30.38 102.1 C-31.73 97.52 -34.13 95.16 -38.04 92.73 C-48.88 87.3 -61.27 84.79 -72.94 81.68 C-90.78 76.9 -108.23 71 -118.53 54.55 C-125.16 42.25 -125.77 28.18 -121.96 14.84 C-117.33 1.21 -108.69 -8.27 -96 -15 C-65.3 -29.68 -25.58 -21.22 0 0 Z " fill="#000000" transform="translate(575,125)"/>
<path d="M0 0 C13.95 11.08 23.13 26.04 26.22 43.69 C27.75 64.92 24.49 83.7 10.34 100.38 C-3.18 115.13 -20.81 123.32 -40.78 124.69 C-62.36 124.88 -81.2 117.93 -96.78 102.69 C-109.76 87.76 -116.03 69.38 -114.78 49.69 C-112.21 30.61 -104.51 14.31 -89.78 1.69 C-82.99 -3.35 -75.65 -7.28 -67.78 -10.31 C-66.53 -10.79 -66.53 -10.79 -65.26 -11.29 C-43.61 -18.09 -18.08 -13.38 0 0 Z M-72.55 29.82 C-78.08 37.57 -80.35 45.53 -80.28 55 C-80.27 55.83 -80.27 56.65 -80.26 57.5 C-79.97 67.84 -76.09 77.27 -68.78 84.69 C-60.06 91.92 -51.51 94.32 -40.27 94.03 C-31.06 93.12 -23.26 89.29 -16.78 82.69 C-8.85 72.37 -6.71 61.49 -7.78 48.69 C-9.4 39.12 -14.21 29.93 -21.93 23.93 C-38.23 12.97 -59.48 14.11 -72.55 29.82 Z " fill="#000000" transform="translate(850.775390625,158.3134765625)"/>
<path d="M0 0 C0.68 -0 1.37 -0 2.07 -0 C3.51 -0 4.96 -0 6.4 0 C8.62 0.01 10.83 0 13.05 -0 C14.45 -0 15.85 -0 17.25 0 C18.53 0 19.81 0 21.13 0 C24.06 0.13 24.06 0.13 25.06 1.13 C25.15 3.65 25.17 6.15 25.16 8.67 C25.15 9.42 25.15 10.17 25.15 10.95 C25.15 13.37 25.13 15.78 25.12 18.2 C25.12 19.83 25.11 21.46 25.11 23.1 C25.1 27.11 25.08 31.12 25.06 35.13 C26.05 35.12 27.04 35.11 28.06 35.1 C31.72 35.06 35.38 35.04 39.05 35.02 C40.63 35.01 42.22 35 43.81 34.98 C46.09 34.96 48.37 34.95 50.64 34.94 C51.36 34.93 52.07 34.92 52.8 34.91 C54.55 34.91 56.31 35.01 58.06 35.13 C60.06 37.13 60.06 37.13 60.3 39.82 C60.3 40.94 60.29 42.05 60.29 43.2 C60.29 44.41 60.29 45.61 60.28 46.86 C60.27 48.12 60.26 49.39 60.25 50.7 C60.25 52.6 60.25 52.6 60.24 54.54 C60.2 63.99 60.2 63.99 59.06 65.13 C56.54 65.22 54.04 65.25 51.52 65.23 C50.39 65.23 50.39 65.23 49.24 65.23 C46.83 65.22 44.41 65.21 42 65.2 C40.36 65.19 38.73 65.19 37.1 65.18 C33.08 65.17 29.07 65.15 25.06 65.13 C25.14 73.21 25.24 81.28 25.35 89.36 C25.4 93.11 25.44 96.86 25.48 100.61 C25.52 104.24 25.56 107.86 25.62 111.49 C25.64 112.86 25.65 114.24 25.66 115.62 C25.72 122.76 25.9 129.29 28.06 136.13 C36.93 139.64 46.66 138.17 55.35 134.66 C57.06 134.13 57.06 134.13 59.06 135.13 C59.23 139.55 59.34 143.96 59.43 148.38 C59.48 149.64 59.53 150.89 59.59 152.18 C59.64 155.6 59.62 158.77 59.06 162.13 C56.32 164.89 56.32 164.89 53.06 166.13 C52.29 166.47 51.51 166.8 50.71 167.14 C50 167.37 49.29 167.59 48.56 167.82 C47.49 168.17 47.49 168.17 46.4 168.52 C33.59 171.87 18.47 171.59 6.75 164.95 C-1.58 159.13 -6.49 151.38 -8.48 141.44 C-8.98 137.83 -9.06 134.39 -9.05 130.75 C-9.06 130.04 -9.06 129.32 -9.06 128.59 C-9.05 126.25 -9.05 123.92 -9.04 121.58 C-9.04 119.95 -9.04 118.32 -9.03 116.69 C-9.03 112.42 -9.02 108.15 -9.01 103.88 C-9 99.52 -9 95.15 -8.99 90.79 C-8.98 82.24 -8.96 73.68 -8.94 65.13 C-14.22 65.13 -19.5 65.13 -24.94 65.13 C-24.96 61.02 -24.98 56.91 -25 52.8 C-25 51.4 -25.01 50 -25.02 48.6 C-25.03 46.59 -25.03 44.58 -25.04 42.57 C-25.04 41.36 -25.05 40.15 -25.05 38.91 C-24.94 36.13 -24.94 36.13 -23.94 35.13 C-18.99 35.13 -14.04 35.13 -8.94 35.13 C-8.94 23.91 -8.94 12.69 -8.94 1.13 C-5.98 -0.35 -3.3 0 0 0 Z " fill="#000000" transform="translate(903.94140625,111.8671875)"/>
<path d="M0 0 C1.02 -0 1.02 -0 2.06 -0.01 C3.5 -0.01 4.94 -0 6.38 0 C8.59 0.02 10.79 0 13 -0.01 C14.39 -0.01 15.79 -0 17.19 0 C18.46 0 19.74 0 21.05 0.01 C24.09 0.27 24.09 0.27 26.09 2.27 C26.35 4.52 26.35 4.52 26.35 7.39 C26.35 8.48 26.36 9.56 26.36 10.68 C26.36 11.87 26.36 13.07 26.35 14.3 C26.36 15.56 26.36 16.81 26.36 18.11 C26.37 21.55 26.37 25 26.36 28.45 C26.36 32.06 26.36 35.66 26.37 39.26 C26.37 45.32 26.36 51.37 26.35 57.42 C26.34 64.43 26.35 71.43 26.36 78.43 C26.37 84.44 26.37 90.45 26.36 96.45 C26.36 100.04 26.36 103.63 26.37 107.23 C26.37 111.23 26.36 115.23 26.35 119.23 C26.36 120.42 26.36 121.62 26.36 122.85 C26.36 124.48 26.36 124.48 26.35 126.14 C26.35 127.09 26.35 128.03 26.35 129.01 C26.09 131.27 26.09 131.27 24.09 133.27 C21.05 133.52 21.05 133.52 17.19 133.53 C16.17 133.53 16.17 133.53 15.13 133.54 C13.69 133.54 12.25 133.53 10.81 133.53 C8.6 133.52 6.4 133.53 4.19 133.54 C2.79 133.54 1.4 133.54 0 133.53 C-1.28 133.53 -2.55 133.53 -3.87 133.52 C-6.91 133.27 -6.91 133.27 -8.91 131.27 C-9.16 129.01 -9.16 129.01 -9.16 126.14 C-9.17 125.06 -9.17 123.97 -9.18 122.85 C-9.17 121.66 -9.17 120.46 -9.17 119.23 C-9.17 117.97 -9.17 116.72 -9.18 115.42 C-9.18 111.98 -9.18 108.53 -9.17 105.08 C-9.17 101.48 -9.17 97.87 -9.18 94.27 C-9.18 88.22 -9.18 82.16 -9.17 76.11 C-9.16 69.11 -9.16 62.1 -9.17 55.1 C-9.18 49.09 -9.18 43.08 -9.18 37.08 C-9.17 33.49 -9.17 29.9 -9.18 26.31 C-9.19 22.3 -9.18 18.3 -9.17 14.3 C-9.17 13.11 -9.17 11.91 -9.18 10.68 C-9.17 9.59 -9.17 8.51 -9.16 7.39 C-9.16 6.44 -9.16 5.5 -9.16 4.52 C-8.56 -0.88 -4.43 0.01 0 0 Z " fill="#000000" transform="translate(984.90625,146.734375)"/>
<path d="M0 0 C4.65 3.42 7.28 6.78 9.12 12.31 C9.83 19.46 9.51 25.44 5.12 31.31 C0.17 36.7 -4.78 39.25 -12.12 39.75 C-18.66 39.55 -24.25 37.01 -28.8 32.33 C-32.75 27.01 -34.3 21.92 -33.88 15.31 C-32.91 9.23 -30.46 4.88 -25.89 0.76 C-17.85 -5.01 -8.34 -5.2 0 0 Z " fill="#000000" transform="translate(1005.875,92.6875)"/>
<path d="M0 0 C5.03 3.68 8.56 8.16 9.82 14.33 C10.42 21.84 8.77 27.08 4.07 33.08 C-0.24 37.78 -4.81 39.46 -11.12 39.77 C-17.11 39.55 -21.55 37.8 -25.94 33.68 C-30.98 28.11 -32.68 23.41 -32.49 15.89 C-31.78 9.99 -29.1 5.89 -24.74 1.96 C-17.29 -3.83 -8.34 -4.78 0 0 Z M-26.98 8.61 C-30.05 13.01 -29.6 18.21 -29.18 23.33 C-27.4 28.78 -23.79 32.11 -19.18 35.33 C-14.17 37 -8.88 37.4 -3.89 35.43 C1.53 32.25 4.81 28.36 6.82 22.33 C7.36 15.98 6.46 11.63 2.82 6.33 C-1.41 2.32 -5.18 0.05 -11.05 0.02 C-18.52 0.22 -22.33 3.05 -26.98 8.61 Z " fill="#000000" transform="translate(1261.1796875,149.66796875)"/>
<path d="M0 0 C13.7 -0.42 13.7 -0.42 18 3 C19.06 6.38 19.06 6.38 19 10 C17.06 12.94 17.06 12.94 15 15 C15.99 16.14 15.99 16.14 17 17.31 C19 20 19 20 19 23 C16.81 23.44 16.81 23.44 14 23 C12.55 21.3 11.43 19.56 10.31 17.63 C8.69 15.61 7.52 15.38 5 15 C5 17.64 5 20.28 5 23 C3.35 22.67 1.7 22.34 0 22 C0 14.74 0 7.48 0 0 Z M5 5 C5 6.98 5 8.96 5 11 C8.42 11.17 8.42 11.17 12 11 C12.66 10.34 13.32 9.68 14 9 C13.68 6.89 13.68 6.89 13 5 C10.36 5 7.72 5 5 5 Z " fill="#000000" transform="translate(1241,156)"/>
</svg>
